<svg id="visual" viewBox="0 0 900 600" width="900" height="600" xmlns="http://www.w3.org/2000/svg" xmlns:xlink="http://www.w3.org/1999/xlink" version="1.1"><rect x="0" y="0" width="900" height="600" fill="#27626d"></rect><path d="M0 368L21.5 366.3C43 364.7 86 361.3 128.8 368.7C171.7 376 214.3 394 257.2 402.7C300 411.3 343 410.7 385.8 409.3C428.7 408 471.3 406 514.2 407.2C557 408.3 600 412.7 642.8 411.8C685.7 411 728.3 405 771.2 407.8C814 410.7 857 422.3 878.5 428.2L900 434L900 601L878.5 601C857 601 814 601 771.2 601C728.3 601 685.7 601 642.8 601C600 601 557 601 514.2 601C471.3 601 428.7 601 385.8 601C343 601 300 601 257.2 601C214.3 601 171.7 601 128.8 601C86 601 43 601 21.5 601L0 601Z" fill="#efcada"></path><path d="M0 414L21.5 418C43 422 86 430 128.8 435.2C171.7 440.3 214.3 442.7 257.2 436.7C300 430.7 343 416.3 385.8 415.2C428.7 414 471.3 426 514.2 428.3C557 430.7 600 423.3 642.8 426C685.7 428.7 728.3 441.3 771.2 450.5C814 459.7 857 465.3 878.5 468.2L900 471L900 601L878.5 601C857 601 814 601 771.2 601C728.3 601 685.7 601 642.8 601C600 601 557 601 514.2 601C471.3 601 428.7 601 385.8 601C343 601 300 601 257.2 601C214.3 601 171.7 601 128.8 601C86 601 43 601 21.5 601L0 601Z" fill="#f6aed5"></path><path d="M0 466L21.5 472.5C43 479 86 492 128.8 494.5C171.7 497 214.3 489 257.2 479.3C300 469.7 343 458.3 385.8 462.7C428.7 467 471.3 487 514.2 497C557 507 600 507 642.8 500.3C685.7 493.7 728.3 480.3 771.2 475.7C814 471 857 475 878.5 477L900 479L900 601L878.5 601C857 601 814 601 771.2 601C728.3 601 685.7 601 642.8 601C600 601 557 601 514.2 601C471.3 601 428.7 601 385.8 601C343 601 300 601 257.2 601C214.3 601 171.7 601 128.8 601C86 601 43 601 21.5 601L0 601Z" fill="#f791d5"></path><path d="M0 540L21.5 537C43 534 86 528 128.8 520.8C171.7 513.7 214.3 505.3 257.2 504.3C300 503.3 343 509.7 385.8 508.3C428.7 507 471.3 498 514.2 492.3C557 486.7 600 484.3 642.8 491.7C685.7 499 728.3 516 771.2 524.3C814 532.7 857 532.3 878.5 532.2L900 532L900 601L878.5 601C857 601 814 601 771.2 601C728.3 601 685.7 601 642.8 601C600 601 557 601 514.2 601C471.3 601 428.7 601 385.8 601C343 601 300 601 257.2 601C214.3 601 171.7 601 128.8 601C86 601 43 601 21.5 601L0 601Z" fill="#f373da"></path><path d="M0 536L21.5 540.7C43 545.3 86 554.7 128.8 557.7C171.7 560.7 214.3 557.3 257.2 556.7C300 556 343 558 385.8 554.8C428.7 551.7 471.3 543.3 514.2 545C557 546.7 600 558.3 642.8 562.2C685.7 566 728.3 562 771.2 562.5C814 563 857 568 878.5 570.5L900 573L900 601L878.5 601C857 601 814 601 771.2 601C728.3 601 685.7 601 642.8 601C600 601 557 601 514.2 601C471.3 601 428.7 601 385.8 601C343 601 300 601 257.2 601C214.3 601 171.7 601 128.8 601C86 601 43 601 21.5 601L0 601Z" fill="#e854e3"></path></svg>